<svg width="405" height="209" viewBox="0 0 405 209" fill="none" xmlns="http://www.w3.org/2000/svg">
<path d="M191.463 107.986L191.063 105.165L190.753 104.022C190.344 102.516 189.759 101.063 189.009 99.6946V99.6946C188.078 97.997 186.903 96.4453 185.521 95.0892L183.37 92.9782L182.725 92.4931C179.952 90.4061 176.913 88.6987 173.688 87.416L171.991 86.741L167.252 85.5108C164.918 84.905 162.509 84.6398 160.1 84.7233V84.7233C158.422 84.7815 156.754 85.0084 155.122 85.4007L151.914 86.1714L148.408 87.536C146.564 88.2539 144.811 89.1859 143.184 90.3129L142.374 90.8735C141.065 91.7806 139.882 92.8583 138.858 94.078V94.078C137.503 95.6906 136.443 97.5294 135.726 99.51L135.495 100.15C135.049 101.382 134.716 102.651 134.499 103.942L134.339 104.894C134.104 106.287 134.047 107.704 134.167 109.111V109.111C134.271 110.319 134.505 111.512 134.865 112.67L135.404 114.399C135.629 115.122 135.919 115.823 136.271 116.493V116.493C136.923 117.735 137.779 118.859 138.803 119.817L139.35 120.328C140.075 121.006 140.858 121.619 141.691 122.16L144.212 123.798L149.098 126.312L153.458 128.236L160.571 130.875L167.127 133.483L174.209 136.68L176.466 137.627C177.85 138.208 179.175 138.921 180.421 139.757L181.719 140.627C184.043 142.185 185.946 144.292 187.261 146.76V146.76C188.137 148.404 188.737 150.18 189.037 152.017L189.084 152.299C189.304 153.647 189.376 155.014 189.3 156.377L189.269 156.924C189.178 158.535 188.912 160.131 188.475 161.685L188.32 162.233C187.932 163.61 187.378 164.935 186.668 166.177V166.177C185.734 167.812 184.543 169.285 183.141 170.541L182.585 171.038C181.624 171.899 180.59 172.673 179.494 173.353L178.648 173.879C176.458 175.237 174.12 176.339 171.678 177.162L169.929 177.751C167.856 178.45 165.719 178.938 163.549 179.208V179.208C161.603 179.451 159.64 179.517 157.683 179.407L157.117 179.375C155.375 179.277 153.644 179.035 151.942 178.652V178.652C149.246 178.044 146.641 177.086 144.195 175.801L141.913 174.602L139.077 172.672C137.395 171.528 135.941 170.083 134.786 168.409V168.409C133.553 166.621 132.685 164.607 132.233 162.483L132.124 161.967C131.771 160.309 131.641 158.612 131.736 156.92L131.844 155.006" stroke="url(#paint0_linear_1_91)" stroke-width="17" stroke-linecap="round"/>
<line x1="12.5951" y1="10.4315" x2="52.4315" y2="133.405" stroke="#D39BFF" stroke-width="20" stroke-linecap="round"/>
<line x1="55.6823" y1="134.896" x2="88.8957" y2="56.3177" stroke="#D39BFF" stroke-width="20" stroke-linecap="round"/>
<line x1="90.5313" y1="55.5548" x2="115.555" y2="135.469" stroke="#D39BFF" stroke-width="20" stroke-linecap="round"/>
<path d="M118.127 134.724L164 42" stroke="#D39BFF" stroke-width="20" stroke-linecap="round"/>
<line x1="15.6812" y1="12.2601" x2="58.402" y2="138.28" stroke="url(#paint1_angular_1_91)" stroke-width="20" stroke-linecap="round"/>
<line x1="58.7015" y1="137.849" x2="92.8879" y2="57.2985" stroke="url(#paint2_angular_1_91)" stroke-width="20" stroke-linecap="round"/>
<line x1="93.6386" y1="58.3455" x2="119.487" y2="136.322" stroke="url(#paint3_angular_1_91)" stroke-width="20" stroke-linecap="round"/>
<line x1="119.598" y1="136.092" x2="167.56" y2="41.4022" stroke="url(#paint4_angular_1_91)" stroke-width="20" stroke-linecap="round"/>
<path d="M194.096 105.188L193.696 102.367L193.386 101.223C192.977 99.7173 192.392 98.2649 191.641 96.8965V96.8965C190.711 95.1988 189.536 93.6471 188.154 92.291L186.003 90.18L185.358 89.6949C182.585 87.608 179.546 85.9005 176.321 84.6179L174.624 83.9429L169.884 82.7126C167.551 82.1069 165.142 81.8416 162.733 81.9252V81.9252C161.055 81.9833 159.387 82.2102 157.755 82.6025L154.547 83.3732L151.041 84.7379C149.197 85.4557 147.443 86.3877 145.817 87.5147L145.007 88.0754C143.698 88.9825 142.515 90.0601 141.49 91.2798V91.2798C140.136 92.8925 139.076 94.7313 138.359 96.7119L138.128 97.3521C137.682 98.5836 137.349 99.8529 137.132 101.144L136.972 102.096C136.737 103.489 136.68 104.905 136.8 106.313V106.313C136.904 107.521 137.138 108.714 137.498 109.872L138.037 111.601C138.262 112.324 138.552 113.025 138.904 113.695V113.695C139.556 114.937 140.412 116.061 141.436 117.019L141.983 117.53C142.708 118.208 143.491 118.821 144.323 119.362L146.845 121L151.731 123.514L156.091 125.438L163.204 128.077L169.76 130.685L176.842 133.882L181.404 136.095C182.709 136.728 183.941 137.5 185.079 138.398L185.944 139.08C187.768 140.518 189.24 142.353 190.25 144.444V144.444C190.891 145.77 191.337 147.182 191.575 148.636L191.69 149.34C191.928 150.794 192.006 152.27 191.923 153.742L191.902 154.126C191.811 155.737 191.545 157.333 191.107 158.887L190.953 159.435C190.565 160.812 190.01 162.137 189.301 163.379V163.379C188.367 165.013 187.176 166.487 185.773 167.742L185.218 168.24C184.257 169.1 183.223 169.875 182.127 170.555L181.28 171.08C179.091 172.439 176.753 173.541 174.311 174.364L172.562 174.953C170.489 175.651 168.352 176.14 166.182 176.41V176.41C164.236 176.653 162.273 176.719 160.315 176.609L159.75 176.577C158.008 176.479 156.277 176.237 154.575 175.854V175.854C151.879 175.246 149.274 174.287 146.828 173.002L144.546 171.804L141.71 169.874C140.028 168.73 138.573 167.284 137.419 165.61V165.61C136.185 163.823 135.318 161.809 134.866 159.685L134.757 159.169C134.404 157.511 134.274 155.814 134.369 154.121L134.477 152.208" stroke="url(#paint5_linear_1_91)" stroke-width="17" stroke-linecap="round"/>
<path d="M137.128 111.448L148.128 90.448" stroke="#C970E9" stroke-width="11" stroke-linecap="round"/>
<path d="M198.159 196H193.727L206.545 161.091H210.909L223.727 196H219.295L208.864 166.614H208.591L198.159 196ZM199.795 182.364H217.659V186.114H199.795V182.364ZM239.256 196.545C236.801 196.545 234.688 195.966 232.915 194.807C231.142 193.648 229.778 192.051 228.824 190.017C227.869 187.983 227.392 185.659 227.392 183.045C227.392 180.386 227.881 178.04 228.858 176.006C229.847 173.96 231.222 172.364 232.983 171.216C234.756 170.057 236.824 169.477 239.188 169.477C241.028 169.477 242.688 169.818 244.165 170.5C245.642 171.182 246.852 172.136 247.795 173.364C248.739 174.591 249.324 176.023 249.551 177.659H245.528C245.222 176.466 244.54 175.409 243.483 174.489C242.438 173.557 241.028 173.091 239.256 173.091C237.688 173.091 236.313 173.5 235.131 174.318C233.96 175.125 233.045 176.267 232.386 177.744C231.739 179.21 231.415 180.932 231.415 182.909C231.415 184.932 231.733 186.693 232.369 188.193C233.017 189.693 233.926 190.858 235.097 191.688C236.278 192.517 237.665 192.932 239.256 192.932C240.301 192.932 241.25 192.75 242.102 192.386C242.955 192.023 243.676 191.5 244.267 190.818C244.858 190.136 245.278 189.318 245.528 188.364H249.551C249.324 189.909 248.761 191.301 247.864 192.54C246.977 193.767 245.801 194.744 244.335 195.472C242.881 196.188 241.188 196.545 239.256 196.545ZM263.136 196.614C261.477 196.614 259.972 196.301 258.619 195.676C257.267 195.04 256.193 194.125 255.398 192.932C254.602 191.727 254.205 190.273 254.205 188.568C254.205 187.068 254.5 185.852 255.091 184.92C255.682 183.977 256.472 183.239 257.46 182.705C258.449 182.17 259.54 181.773 260.733 181.511C261.938 181.239 263.148 181.023 264.364 180.864C265.955 180.659 267.244 180.506 268.233 180.403C269.233 180.29 269.96 180.102 270.415 179.841C270.881 179.58 271.114 179.125 271.114 178.477V178.341C271.114 176.659 270.653 175.352 269.733 174.42C268.824 173.489 267.443 173.023 265.591 173.023C263.67 173.023 262.165 173.443 261.074 174.284C259.983 175.125 259.216 176.023 258.773 176.977L254.955 175.614C255.636 174.023 256.545 172.784 257.682 171.898C258.83 171 260.08 170.375 261.432 170.023C262.795 169.659 264.136 169.477 265.455 169.477C266.295 169.477 267.261 169.58 268.352 169.784C269.455 169.977 270.517 170.381 271.54 170.994C272.574 171.608 273.432 172.534 274.114 173.773C274.795 175.011 275.136 176.67 275.136 178.75V196H271.114V192.455H270.909C270.636 193.023 270.182 193.631 269.545 194.278C268.909 194.926 268.063 195.477 267.006 195.932C265.949 196.386 264.659 196.614 263.136 196.614ZM263.75 193C265.341 193 266.682 192.688 267.773 192.062C268.875 191.438 269.705 190.631 270.261 189.642C270.83 188.653 271.114 187.614 271.114 186.523V182.841C270.943 183.045 270.568 183.233 269.989 183.403C269.42 183.562 268.761 183.705 268.011 183.83C267.273 183.943 266.551 184.045 265.847 184.136C265.153 184.216 264.591 184.284 264.159 184.341C263.114 184.477 262.136 184.699 261.227 185.006C260.33 185.301 259.602 185.75 259.045 186.352C258.5 186.943 258.227 187.75 258.227 188.773C258.227 190.17 258.744 191.227 259.778 191.943C260.824 192.648 262.148 193 263.75 193ZM292.365 196.545C290.183 196.545 288.257 195.994 286.587 194.892C284.916 193.778 283.609 192.21 282.666 190.188C281.723 188.153 281.251 185.75 281.251 182.977C281.251 180.227 281.723 177.841 282.666 175.818C283.609 173.795 284.922 172.233 286.604 171.131C288.286 170.028 290.229 169.477 292.433 169.477C294.138 169.477 295.484 169.761 296.473 170.33C297.473 170.886 298.234 171.523 298.757 172.239C299.291 172.943 299.706 173.523 300.001 173.977H300.342V161.091H304.365V196H300.479V191.977H300.001C299.706 192.455 299.286 193.057 298.74 193.784C298.195 194.5 297.416 195.142 296.405 195.71C295.393 196.267 294.047 196.545 292.365 196.545ZM292.911 192.932C294.524 192.932 295.888 192.511 297.001 191.67C298.115 190.818 298.962 189.642 299.541 188.142C300.121 186.631 300.411 184.886 300.411 182.909C300.411 180.955 300.126 179.244 299.558 177.778C298.99 176.301 298.149 175.153 297.036 174.335C295.922 173.506 294.547 173.091 292.911 173.091C291.206 173.091 289.786 173.528 288.649 174.403C287.524 175.267 286.678 176.443 286.109 177.932C285.553 179.409 285.274 181.068 285.274 182.909C285.274 184.773 285.558 186.466 286.126 187.989C286.706 189.5 287.558 190.705 288.683 191.602C289.82 192.489 291.229 192.932 292.911 192.932ZM323.268 196.545C320.746 196.545 318.57 195.989 316.74 194.875C314.922 193.75 313.518 192.182 312.53 190.17C311.553 188.148 311.064 185.795 311.064 183.114C311.064 180.432 311.553 178.068 312.53 176.023C313.518 173.966 314.893 172.364 316.655 171.216C318.428 170.057 320.496 169.477 322.859 169.477C324.223 169.477 325.57 169.705 326.899 170.159C328.229 170.614 329.439 171.352 330.53 172.375C331.621 173.386 332.49 174.727 333.138 176.398C333.786 178.068 334.109 180.125 334.109 182.568V184.273H313.928V180.795H330.018C330.018 179.318 329.723 178 329.132 176.841C328.553 175.682 327.723 174.767 326.643 174.097C325.575 173.426 324.314 173.091 322.859 173.091C321.257 173.091 319.871 173.489 318.7 174.284C317.541 175.068 316.649 176.091 316.024 177.352C315.399 178.614 315.087 179.966 315.087 181.409V183.727C315.087 185.705 315.428 187.381 316.109 188.756C316.803 190.119 317.763 191.159 318.99 191.875C320.217 192.58 321.643 192.932 323.268 192.932C324.325 192.932 325.28 192.784 326.132 192.489C326.996 192.182 327.74 191.727 328.365 191.125C328.99 190.511 329.473 189.75 329.814 188.841L333.7 189.932C333.291 191.25 332.604 192.409 331.638 193.409C330.672 194.398 329.479 195.17 328.058 195.727C326.638 196.273 325.041 196.545 323.268 196.545ZM340.229 196V169.818H344.115V173.909H344.456C345.001 172.511 345.882 171.426 347.098 170.653C348.314 169.869 349.774 169.477 351.479 169.477C353.206 169.477 354.643 169.869 355.791 170.653C356.95 171.426 357.854 172.511 358.501 173.909H358.774C359.445 172.557 360.45 171.483 361.791 170.688C363.132 169.881 364.74 169.477 366.615 169.477C368.956 169.477 370.871 170.21 372.359 171.676C373.848 173.131 374.592 175.398 374.592 178.477V196H370.57V178.477C370.57 176.545 370.041 175.165 368.984 174.335C367.928 173.506 366.683 173.091 365.251 173.091C363.411 173.091 361.984 173.648 360.973 174.761C359.962 175.864 359.456 177.261 359.456 178.955V196H355.365V178.068C355.365 176.58 354.882 175.381 353.916 174.472C352.95 173.551 351.706 173.091 350.183 173.091C349.138 173.091 348.161 173.369 347.251 173.926C346.354 174.483 345.626 175.256 345.07 176.244C344.524 177.222 344.251 178.352 344.251 179.636V196H340.229ZM383.601 205.818C382.919 205.818 382.311 205.761 381.777 205.648C381.243 205.545 380.874 205.443 380.669 205.341L381.692 201.795C382.669 202.045 383.533 202.136 384.283 202.068C385.033 202 385.697 201.665 386.277 201.062C386.868 200.472 387.408 199.511 387.896 198.182L388.646 196.136L378.964 169.818H383.328L390.555 190.682H390.828L398.055 169.818H402.419L391.305 199.818C390.805 201.17 390.186 202.29 389.447 203.176C388.709 204.074 387.851 204.739 386.874 205.17C385.908 205.602 384.817 205.818 383.601 205.818Z" fill="url(#paint6_linear_1_91)"/>
<path d="M44 205.545H224.955V208.818H44V205.545ZM224.938 205.545H278.818V208.818H224.938V205.545ZM278.797 205.545H336.564V208.818H278.797V205.545ZM336.547 205.545H378.274V208.818H336.547V205.545ZM377.328 205.545H404.055V208.818H377.328V205.545Z" fill="url(#paint7_linear_1_91)"/>
<defs>
<linearGradient id="paint0_linear_1_91" x1="193.192" y1="131.457" x2="128.049" y2="98.2719" gradientUnits="userSpaceOnUse">
<stop offset="0.741441" stop-color="#D7A4FF"/>
<stop offset="0.747329" stop-color="#C970E9"/>
</linearGradient>
<radialGradient id="paint1_angular_1_91" cx="0" cy="0" r="1" gradientUnits="userSpaceOnUse" gradientTransform="translate(27.0974 78.641) rotate(161.273) scale(0.5 76.532)">
<stop offset="0.495" stop-color="#BA07B3"/>
<stop offset="1" stop-color="#540351"/>
</radialGradient>
<radialGradient id="paint2_angular_1_91" cx="0" cy="0" r="1" gradientUnits="userSpaceOnUse" gradientTransform="translate(85.4603 101.676) rotate(22.9969) scale(0.5 53.7523)">
<stop offset="0.495" stop-color="#BA07B3"/>
<stop offset="1" stop-color="#540351"/>
</radialGradient>
<radialGradient id="paint3_angular_1_91" cx="0" cy="0" r="1" gradientUnits="userSpaceOnUse" gradientTransform="translate(96.5963 100.638) rotate(161.66) scale(0.5 51.0747)">
<stop offset="0.495" stop-color="#BA07B3"/>
<stop offset="1" stop-color="#540351"/>
</radialGradient>
<radialGradient id="paint4_angular_1_91" cx="0" cy="0" r="1" gradientUnits="userSpaceOnUse" gradientTransform="translate(152.946 93.4915) rotate(26.8634) scale(0.5 63.0719)">
<stop offset="0.495" stop-color="#BA07B3"/>
<stop offset="1" stop-color="#540351"/>
</radialGradient>
<linearGradient id="paint5_linear_1_91" x1="195.825" y1="128.658" x2="130.682" y2="95.4737" gradientUnits="userSpaceOnUse">
<stop offset="0.741441" stop-color="#BA63FF"/>
<stop offset="0.747329" stop-color="#C970E9"/>
</linearGradient>
<linearGradient id="paint6_linear_1_91" x1="44" y1="179" x2="405" y2="179" gradientUnits="userSpaceOnUse">
<stop offset="0.582076" stop-color="#FE0ED8" stop-opacity="0.78"/>
<stop offset="0.985928" stop-color="#7C1BC9"/>
</linearGradient>
<linearGradient id="paint7_linear_1_91" x1="44" y1="179" x2="405" y2="179" gradientUnits="userSpaceOnUse">
<stop offset="0.582076" stop-color="#FE0ED8" stop-opacity="0.78"/>
<stop offset="0.985928" stop-color="#7C1BC9"/>
</linearGradient>
</defs>
</svg>
